<svg width="765" height="1029" viewBox="0 0 765 1029" fill="none" xmlns="http://www.w3.org/2000/svg">
<g opacity="0.9">
<path opacity="0.5" d="M680.842 450.2L160.842 435.3C136.642 434.6 116.742 416.1 114.342 392L89.2425 144C86.4425 115.9 108.242 91.4 136.442 91L715.242 83C744.442 82.6 767.342 108.1 763.742 137.1L730.042 408C726.942 432.7 705.642 451 680.842 450.2Z" fill="#FFE779"/>
<mask id="mask0_301_4755" style="mask-type:alpha" maskUnits="userSpaceOnUse" x="0" y="661" width="676" height="368">
<path d="M591.842 1028.2L71.8425 1013.3C47.6425 1012.6 27.7425 994.105 25.3425 970.005L0.24249 722.005C-2.55751 693.905 19.2425 669.405 47.4425 669.005L626.242 661.005C655.442 660.605 678.342 686.105 674.742 715.105L641.042 986.005C637.942 1010.7 616.642 1029 591.842 1028.2Z" fill="#EAF9F3"/>
</mask>
<g mask="url(#mask0_301_4755)">
</g>
<path d="M350.842 308.7L393.043 293C394.643 292.4 395.743 290.8 395.743 289.1L311.943 283.1L324.842 306.3L346.643 309.2C348.043 309.4 349.542 309.2 350.842 308.7Z" fill="#395460"/>
<path d="M244.643 293.4L237.043 234.1C236.843 232.4 238.243 231 239.843 231.1L341.243 238.3C342.743 238.4 343.943 239.6 344.043 241.1L350.043 306.4C350.243 308.1 348.743 309.5 347.043 309.3L247.243 296.1C245.843 295.8 244.743 294.7 244.643 293.4Z" fill="#22272E"/>
<path d="M395.743 289.2C395.743 291 394.643 292.5 393.043 293.1L350.842 308.8C349.842 309.2 348.643 309.4 347.543 309.3C345.943 308.1 344.943 306.2 344.943 306.2L395.743 289.2Z" fill="#22272E"/>
<path d="M293.087 273.715C295.753 271.746 296.052 267.63 293.756 264.52C291.459 261.41 287.437 260.485 284.771 262.453C282.106 264.421 281.806 268.538 284.103 271.648C286.399 274.758 290.422 275.683 293.087 273.715Z" fill="#395460"/>
<path d="M527.842 25H497.243L494.142 27C493.142 27.7 491.842 26.9 491.842 25.7V4C491.842 1.8 493.642 0 495.842 0H527.943C530.143 0 531.943 1.8 531.943 4V20.9C531.843 23.2 530.042 25 527.842 25Z" fill="#F4C2C9"/>
<path d="M511.443 10H522.142" stroke="#22272E" stroke-width="1.8" stroke-miterlimit="10" stroke-linecap="round" stroke-linejoin="round"/>
<path d="M511.443 15.5H517.943" stroke="#22272E" stroke-width="1.8" stroke-miterlimit="10" stroke-linecap="round" stroke-linejoin="round"/>
<path d="M505.943 10H500.443V15.5H505.943V10Z" stroke="#22272E" stroke-width="1.8" stroke-miterlimit="10" stroke-linecap="round" stroke-linejoin="round"/>
<path d="M345.042 186.9L176.042 212.5C172.242 213.1 168.842 210.3 168.542 206.5L158.442 54.3C158.142 50.1 161.642 46.6 165.842 46.9L335.143 57.7C338.343 57.9 340.943 60.4 341.243 63.6L350.942 179.5C351.242 183 348.642 186.3 345.042 186.9Z" fill="#395460"/>
<path d="M349.643 186.7L179.842 212.4C176.042 213 172.642 210.2 172.342 206.4L162.142 53.5C161.842 49.3 165.342 45.7 169.642 46L339.643 56.8C342.843 57 345.443 59.5 345.743 62.8L355.542 179.2C355.942 182.9 353.343 186.2 349.643 186.7Z" fill="#22272E"/>
<path d="M238.942 134.3L191.142 136.9C189.642 137 188.342 135.8 188.242 134.3L185.442 93.9C185.342 92.3 186.642 90.9 188.242 90.9L236.042 91.2C237.542 91.2 238.742 92.3 238.842 93.8L241.642 131.3C241.742 132.9 240.542 134.2 238.942 134.3Z" fill="#673AB7"/>
<path d="M290.343 118.7L250.343 120.1C248.843 120.2 247.543 119 247.443 117.5L245.743 94.2C245.643 92.6 246.943 91.2 248.543 91.2L288.543 91.5C289.943 91.5 291.143 92.6 291.343 94.1L293.043 115.7C293.143 117.3 291.943 118.7 290.343 118.7Z" fill="#FFE779"/>
<path d="M335.643 117.2L301.943 118.4C300.443 118.5 299.143 117.3 299.043 115.8L297.343 94.7C297.243 93.1 298.543 91.7 300.143 91.7L333.843 91.9C335.243 91.9 336.443 93 336.643 94.5L338.243 114.2C338.443 115.7 337.243 117.1 335.643 117.2Z" fill="#F4C2C9"/>
<path d="M241.943 173.5L194.143 178.7C192.543 178.9 191.143 177.7 191.043 176.1L189.243 150C189.143 148.5 190.342 147.1 191.842 147L239.743 143.8C241.243 143.7 242.643 144.8 242.743 146.4L244.543 170.5C244.543 172 243.443 173.3 241.943 173.5Z" stroke="#395460" stroke-width="1.8" stroke-miterlimit="10" stroke-linecap="round" stroke-linejoin="round"/>
<path d="M294.842 172.5L254.942 177.2C253.342 177.4 251.942 176.2 251.842 174.6L248.642 131.5C248.542 129.9 249.742 128.6 251.242 128.5L291.242 126.6C292.742 126.5 294.042 127.7 294.142 129.2L297.342 169.5C297.442 171 296.342 172.3 294.842 172.5Z" fill="#F4C2C9"/>
<path d="M286.542 134.1L257.842 135.8C257.142 135.8 256.642 136.4 256.742 137.1L258.042 154.9C258.142 155.6 258.642 156.1 259.342 156L288.042 153.5C288.742 153.4 289.242 152.9 289.142 152.2L287.842 135.2C287.742 134.6 287.142 134.1 286.542 134.1Z" fill="#673AB7"/>
<path d="M339.642 162.6L305.942 166.3C304.342 166.5 302.942 165.3 302.842 163.7L300.142 129C300.042 127.4 301.242 126.1 302.742 126L336.442 124.4C337.942 124.3 339.242 125.5 339.342 127L342.042 159.6C342.242 161.1 341.142 162.4 339.642 162.6Z" fill="#FFE779"/>
<path d="M217.542 157L218.142 164.4" stroke="#395460" stroke-width="1.8" stroke-miterlimit="10" stroke-linecap="round" stroke-linejoin="round"/>
<path d="M214.342 161L221.342 160.4" stroke="#395460" stroke-width="1.8" stroke-miterlimit="10" stroke-linecap="round" stroke-linejoin="round"/>
<path d="M265.443 165.2C265.243 163.2 263.743 161.6 261.943 161.8C260.143 162 258.743 163.8 258.943 165.9C259.143 168 260.743 169.5 262.543 169.3C264.243 169 265.543 167.2 265.443 165.2Z" fill="#22272E"/>
<path d="M271.243 164.6L289.943 162.7" stroke="#22272E" stroke-width="1.8" stroke-miterlimit="10" stroke-linecap="round" stroke-linejoin="round"/>
<path d="M312.843 135.4C312.643 133.5 311.343 132.1 309.743 132.1C308.143 132.2 307.043 133.8 307.143 135.7C307.343 137.6 308.643 139.1 310.243 139C311.943 138.9 313.043 137.3 312.843 135.4Z" fill="#673AB7"/>
<path d="M317.943 135.1L334.043 134.1" stroke="#22272E" stroke-width="1.8" stroke-miterlimit="10" stroke-linecap="round" stroke-linejoin="round"/>
<path d="M313.743 146.1C313.543 144.2 312.243 142.8 310.643 142.9C309.043 143 307.942 144.7 308.042 146.6C308.242 148.5 309.643 150 311.143 149.8C312.743 149.6 313.943 148 313.743 146.1Z" fill="#673AB7"/>
<path d="M318.742 145.7L334.942 144.4" stroke="#22272E" stroke-width="1.8" stroke-miterlimit="10" stroke-linecap="round" stroke-linejoin="round"/>
<path d="M314.643 156.8C314.443 154.9 313.143 153.5 311.543 153.6C309.943 153.7 308.843 155.4 308.943 157.3C309.143 159.2 310.543 160.6 312.043 160.5C313.643 160.3 314.743 158.7 314.643 156.8Z" fill="#673AB7"/>
<path d="M319.643 156.3L335.743 154.7" stroke="#22272E" stroke-width="1.8" stroke-miterlimit="10" stroke-linecap="round" stroke-linejoin="round"/>
<path d="M202.143 107.1L195.643 107.2C195.043 107.2 194.543 106.7 194.443 106.1L193.943 99.3C193.943 98.6 194.443 98.1 195.143 98.1H201.643C202.243 98.1 202.742 98.6 202.842 99.2L203.342 105.9C203.242 106.5 202.743 107.1 202.143 107.1Z" fill="#FFE779"/>
<path d="M209.143 98.1L231.643 98" stroke="#22272E" stroke-width="1.8" stroke-miterlimit="10" stroke-linecap="round" stroke-linejoin="round"/>
<path d="M209.543 103.9L232.043 103.7" stroke="#22272E" stroke-width="1.8" stroke-miterlimit="10" stroke-linecap="round" stroke-linejoin="round"/>
<path d="M310.042 105.5L304.942 105.6C304.642 105.6 304.342 105.3 304.242 105L303.742 98.5C303.742 98.1 304.042 97.8 304.442 97.8H309.542C309.842 97.8 310.142 98.1 310.242 98.4L310.742 104.8C310.742 105.1 310.442 105.5 310.042 105.5Z" fill="#22272E"/>
<path d="M314.842 97.7H331.542" stroke="#22272E" stroke-width="1.8" stroke-miterlimit="10" stroke-linecap="round" stroke-linejoin="round"/>
<path d="M315.342 102.8L331.942 102.6" stroke="#22272E" stroke-width="1.8" stroke-miterlimit="10" stroke-linecap="round" stroke-linejoin="round"/>
<path d="M304.742 111.1L332.542 110.4" stroke="#22272E" stroke-width="1.8" stroke-miterlimit="10" stroke-linecap="round" stroke-linejoin="round"/>
<path d="M203.242 122.6L196.742 122.8C196.142 122.8 195.542 122.3 195.542 121.7L195.042 114.9C195.042 114.2 195.542 113.7 196.142 113.7L202.642 113.5C203.242 113.5 203.742 114 203.842 114.6L204.342 121.3C204.342 122 203.842 122.6 203.242 122.6Z" fill="#FFE779"/>
<path d="M210.242 113.4L232.742 112.8" stroke="#22272E" stroke-width="1.8" stroke-miterlimit="10" stroke-linecap="round" stroke-linejoin="round"/>
<path d="M210.642 119.3L233.142 118.6" stroke="#22272E" stroke-width="1.8" stroke-miterlimit="10" stroke-linecap="round" stroke-linejoin="round"/>
<path d="M219.643 74.2L185.942 73.2C184.842 73.2 183.942 72.3 183.842 71.2L183.442 65.9C183.342 64.6 184.443 63.5 185.643 63.6L219.342 65C220.442 65 221.342 65.9 221.442 67L221.842 71.9C221.942 73.1 220.943 74.2 219.643 74.2Z" fill="#673AB7"/>
<path d="M253.742 97.9L285.542 97.8" stroke="#22272E" stroke-width="1.8" stroke-miterlimit="10" stroke-linecap="round" stroke-linejoin="round"/>
<path d="M254.143 103.5L285.943 103.1" stroke="#22272E" stroke-width="1.8" stroke-miterlimit="10" stroke-linecap="round" stroke-linejoin="round"/>
<path d="M254.742 112.3L271.842 111.9" stroke="#22272E" stroke-width="1.8" stroke-miterlimit="10" stroke-linecap="round" stroke-linejoin="round"/>
<path d="M334.643 73.7C334.543 72.2 333.443 70.9 332.143 70.8C330.943 70.7 329.943 72 330.143 73.5C330.243 75.1 331.343 76.4 332.643 76.4C333.843 76.5 334.743 75.2 334.643 73.7Z" fill="#395460"/>
<path d="M325.743 73.4C325.643 71.8 324.443 70.5 323.243 70.5C321.943 70.4 321.043 71.7 321.143 73.3C321.243 74.9 322.443 76.2 323.743 76.2C324.943 76.2 325.843 74.9 325.743 73.4Z" fill="#395460"/>
<path d="M316.542 73C316.442 71.4 315.242 70.1 313.942 70C312.642 69.9 311.642 71.2 311.742 72.8C311.842 74.4 313.042 75.7 314.342 75.8C315.742 75.9 316.642 74.6 316.542 73Z" fill="#395460"/>
<path d="M375.243 86.8L330.842 86C329.042 86 327.542 84.6 327.442 82.8L323.442 33.9C323.342 32.2 324.742 30.9 326.342 31L370.942 35.7C372.642 35.9 373.942 37.2 374.042 38.9L377.942 83.8C378.042 85.5 376.843 86.8 375.243 86.8Z" fill="#F8AB5D"/>
<path d="M377.643 86L333.243 85.2C331.443 85.2 329.942 83.8 329.842 82L325.842 33.1C325.742 31.4 327.143 30.1 328.743 30.2L373.342 34.9C375.042 35.1 376.342 36.4 376.442 38.1L380.342 83C380.442 84.7 379.143 86 377.643 86Z" fill="#FFE779"/>
<path d="M345.242 39.3L368.742 41.5" stroke="#395460" stroke-width="1.8" stroke-miterlimit="10" stroke-linecap="round" stroke-linejoin="round"/>
<path d="M345.642 44.1L369.142 46.1" stroke="#395460" stroke-width="1.8" stroke-miterlimit="10" stroke-linecap="round" stroke-linejoin="round"/>
<path d="M346.542 55.1L370.142 56.7" stroke="#395460" stroke-width="1.8" stroke-miterlimit="10" stroke-linecap="round" stroke-linejoin="round"/>
<path d="M346.942 59.8L370.442 61.2" stroke="#395460" stroke-width="1.8" stroke-miterlimit="10" stroke-linecap="round" stroke-linejoin="round"/>
<path d="M347.942 70.9L371.442 71.9" stroke="#395460" stroke-width="1.8" stroke-miterlimit="10" stroke-linecap="round" stroke-linejoin="round"/>
<path d="M348.342 75.6L371.842 76.4" stroke="#395460" stroke-width="1.8" stroke-miterlimit="10" stroke-linecap="round" stroke-linejoin="round"/>
<path d="M337.142 42L338.342 43.5L340.042 41.2" stroke="#673AB7" stroke-width="1.8" stroke-miterlimit="10" stroke-linecap="round" stroke-linejoin="round"/>
<path d="M338.442 58L339.642 59.4L341.442 57.1" stroke="#673AB7" stroke-width="1.8" stroke-miterlimit="10" stroke-linecap="round" stroke-linejoin="round"/>
<path d="M339.742 73.7L341.042 75.1L342.742 72.7" stroke="#673AB7" stroke-width="1.8" stroke-miterlimit="10" stroke-linecap="round" stroke-linejoin="round"/>
<path d="M396.342 157.1C396.342 157.1 390.142 170 389.642 178.2C389.142 186.4 397.842 219.3 412.042 244.4C412.042 244.4 425.442 240 425.442 235.9C425.442 231.8 417.542 183.3 418.042 181.9C418.542 180.5 424.042 170.2 424.042 165.8C424.042 161.5 398.442 152.3 396.342 157.1Z" fill="#F4C2C9"/>
<path d="M424.042 165.8C424.042 161.4 398.542 152.3 396.442 157.1C396.442 157.1 395.642 158.9 394.542 161.5C402.642 167.8 411.342 173.2 421.242 175C422.642 171.8 424.042 168 424.042 165.8Z" fill="#E26E85"/>
<path d="M422.942 102.3C422.942 102.3 412.942 105.7 405.342 122.9C397.642 140.2 389.642 154.5 389.642 154.5C389.642 154.5 402.142 166.9 418.142 173.2C434.142 179.7 434.742 103.9 422.942 102.3Z" fill="#673AB7"/>
<path d="M392.442 149.4C392.442 149.4 409.542 163.4 425.442 169.5" stroke="#22272E" stroke-width="1.8" stroke-miterlimit="10" stroke-linecap="round" stroke-linejoin="round"/>
<path d="M456.342 475.3C456.342 475.3 455.442 496.3 455.642 498.3C455.842 500.4 448.643 504.6 439.743 504.3C430.943 504 430.042 501.4 430.042 501.4C430.042 501.4 428.042 478.7 427.842 475.5C427.642 472.3 454.542 471 456.342 475.3Z" fill="#F4C2C9"/>
<path d="M455.842 487.4C456.042 481.4 456.342 475.3 456.342 475.3C454.542 471 427.642 472.3 427.842 475.5C427.942 477 428.442 482.6 428.842 488.2C436.742 492.1 447.142 491.1 455.842 487.4Z" fill="#22272E"/>
<path d="M455.642 497.7C455.642 497.7 456.443 503.6 456.743 510C457.043 516.5 458.043 528.1 456.943 530.1C455.743 532.1 449.743 533.8 435.443 534.9C421.143 536 407.942 535 405.642 533.2C403.342 531.4 404.043 528.7 406.243 526.6C408.443 524.5 417.143 515.2 420.743 511.4C425.443 506.4 428.842 501.3 428.842 500.7C429.142 498.3 429.642 498.3 429.642 498.3C429.642 498.3 430.242 499.8 431.042 499.7C431.842 499.6 432.943 495.1 437.743 496.2C442.643 497.3 444.542 500.6 446.342 500.6C448.142 500.5 453.042 499.9 455.642 497.7Z" fill="#22272E"/>
<path d="M493.842 479.5C493.842 479.5 496.542 501.1 497.042 502.4C497.542 503.7 502.542 507.3 510.342 506.9C518.142 506.5 521.143 504.2 521.443 503.7C521.743 503.2 521.242 478.5 521.042 476.9C520.842 475.3 495.642 475.7 493.842 479.5Z" fill="#F4C2C9"/>
<path d="M521.342 488C521.242 482.5 521.043 477.4 520.943 476.7C520.643 475.1 495.642 475.6 493.742 479.4C493.742 479.4 494.342 484.2 495.042 489.4C504.042 491.5 513.042 490.9 521.342 488Z" fill="#22272E"/>
<path d="M496.642 500.5C496.442 502.1 496.342 503.6 496.442 505.2C496.542 506.5 496.642 508.3 496.642 510.5C496.742 515.1 497.142 531 498.242 533.3C499.342 535.6 511.942 537.5 521.442 537.6C530.942 537.7 537.942 535.2 539.042 532.6C540.142 530 539.542 526.2 536.242 522C532.942 517.8 525.342 511.3 524.442 508.2C523.542 505.1 522.142 501.5 521.542 500.5C521.542 500.5 520.242 502.3 518.842 502.7C517.542 503.1 515.642 497.7 511.542 497.5C507.442 497.2 505.642 498.9 503.042 502.7C502.942 502.7 499.342 503 496.642 500.5Z" fill="#22272E"/>
<path d="M408.942 218.7C408.942 218.7 406.542 229.6 405.342 244.3C404.142 259 408.342 350.1 408.942 357.2C409.542 364.3 411.842 404.8 414.442 424.5C416.542 440.7 415.042 473.4 419.942 478C424.842 482.6 439.842 485.1 449.142 482.6C458.442 480.1 462.742 475.5 463.842 471.7C464.942 467.9 460.542 439 460.842 424.3C461.142 409.6 460.842 366.2 460.342 355.9C460.342 355.9 464.442 303.3 469.342 291.3C474.242 279.3 481.342 235.1 467.742 222.3C453.942 209.5 410.142 216.6 408.942 218.7Z" fill="#22272E"/>
<path d="M430.842 224.5C430.842 224.5 430.742 244.3 431.542 259.1C431.842 264.7 432.342 269.6 433.042 272.5C435.542 282.9 440.942 283.7 445.042 286.1C449.142 288.6 463.842 347.4 469.842 362.7C469.842 362.7 474.442 397.9 478.042 418.9C481.542 439.9 481.042 465.3 483.742 474C486.442 482.7 502.242 484.4 509.942 483.7C517.642 483 527.942 480 527.642 471C527.342 462 525.842 436.4 524.542 414.6C523.142 392.8 520.742 360.3 520.142 352.7C520.142 352.7 517.142 316.7 515.542 298.2C513.942 279.7 514.842 260.8 512.442 228.9C509.842 196.9 430.742 206.7 430.842 224.5Z" fill="#22272E"/>
<path d="M431.542 259.1C431.842 264.7 432.342 269.6 433.042 272.5C435.542 282.9 440.942 283.7 445.042 286.1C449.142 288.6 463.842 347.4 469.842 362.7" stroke="#395460" stroke-width="1.8" stroke-miterlimit="10" stroke-linecap="round" stroke-linejoin="round"/>
<path d="M445.042 286.1C445.042 286.1 433.342 280.1 428.142 282.3" stroke="#395460" stroke-width="1.8" stroke-miterlimit="10" stroke-linecap="round" stroke-linejoin="round"/>
<path d="M427.142 371.8C434.433 371.8 440.342 365.308 440.342 357.3C440.342 349.292 434.433 342.8 427.142 342.8C419.852 342.8 413.942 349.292 413.942 357.3C413.942 365.308 419.852 371.8 427.142 371.8Z" stroke="#395460" stroke-width="1.8" stroke-miterlimit="10" stroke-linecap="round" stroke-linejoin="round"/>
<path d="M496.142 370.9C503.654 370.9 509.742 364.408 509.742 356.4C509.742 348.392 503.654 341.9 496.142 341.9C488.631 341.9 482.542 348.392 482.542 356.4C482.542 364.408 488.631 370.9 496.142 370.9Z" stroke="#395460" stroke-width="1.8" stroke-miterlimit="10" stroke-linecap="round" stroke-linejoin="round"/>
<path d="M432.942 489.7C432.942 489.7 432.642 487.6 432.942 486.7" stroke="#395460" stroke-width="1.8" stroke-miterlimit="10" stroke-linecap="round" stroke-linejoin="round"/>
<path d="M441.242 491C441.242 491 441.242 487.1 441.242 486.7" stroke="#395460" stroke-width="1.8" stroke-miterlimit="10" stroke-linecap="round" stroke-linejoin="round"/>
<path d="M451.342 489C451.342 489 451.442 486.5 451.342 485.4" stroke="#395460" stroke-width="1.8" stroke-miterlimit="10" stroke-linecap="round" stroke-linejoin="round"/>
<path d="M499.342 490.3C499.342 490.3 498.842 487.6 498.842 486.8" stroke="#395460" stroke-width="1.8" stroke-miterlimit="10" stroke-linecap="round" stroke-linejoin="round"/>
<path d="M509.342 490.7C509.342 490.7 509.542 487.3 509.342 486.4" stroke="#395460" stroke-width="1.8" stroke-miterlimit="10" stroke-linecap="round" stroke-linejoin="round"/>
<path d="M517.943 489.1C517.943 489.1 518.143 486.8 517.943 485.7" stroke="#395460" stroke-width="1.8" stroke-miterlimit="10" stroke-linecap="round" stroke-linejoin="round"/>
<path d="M423.542 509.9C423.542 509.9 431.142 503.8 446.042 512.2" stroke="white" stroke-width="1.8" stroke-miterlimit="10" stroke-linecap="round" stroke-linejoin="round"/>
<path d="M417.842 517.6C417.842 517.6 427.242 510.1 441.242 519.2" stroke="white" stroke-width="1.8" stroke-miterlimit="10" stroke-linecap="round" stroke-linejoin="round"/>
<path d="M526.742 514.3C526.742 514.3 517.642 510.3 505.342 516.8" stroke="white" stroke-width="1.8" stroke-miterlimit="10" stroke-linecap="round" stroke-linejoin="round"/>
<path d="M530.842 521.1C530.842 521.1 520.342 516.5 507.642 524.8" stroke="white" stroke-width="1.8" stroke-miterlimit="10" stroke-linecap="round" stroke-linejoin="round"/>
<path d="M471.342 98.8C471.342 98.8 476.343 100.3 486.943 100.5C497.543 100.7 509.642 103.8 514.342 109.7C519.042 115.6 520.542 159.1 519.842 178.8C519.142 198.4 505.042 227.8 505.042 227.8C505.042 227.8 471.342 231.6 443.742 230.3C416.142 228.9 409.542 222.9 407.642 221C405.742 219.1 404.642 214.5 405.742 212.5C406.842 210.6 412.242 195 414.242 180.1C416.142 165.1 412.042 144.4 413.942 126.1C415.842 107.8 422.942 102.4 422.942 102.4C422.942 102.4 431.842 99.4 447.242 98.9C462.542 98.2 471.342 98.8 471.342 98.8Z" fill="#FFE779"/>
<path d="M469.842 151.5C473.432 151.5 476.342 148.59 476.342 145C476.342 141.41 473.432 138.5 469.842 138.5C466.253 138.5 463.342 141.41 463.342 145C463.342 148.59 466.253 151.5 469.842 151.5Z" fill="#F8AB5D"/>
<path d="M448.042 95C445.342 95.1 443.242 96.7 441.342 98.6C440.142 99.8 439.042 101.4 438.542 103.5C434.742 121.9 440.542 144.1 447.942 143.9C457.242 143.6 469.742 126.7 479.542 107.5C483.542 99.6 475.842 94.1 471.342 94.1C467.842 94 453.642 94.7 448.042 95Z" fill="#673AB7"/>
<path d="M490.743 56.1C490.743 56.1 490.742 64.2 486.042 72.2C481.342 80.2 475.643 84.4 473.743 88C471.843 91.6 472.343 82.2 473.743 77.7C475.143 73.3 483.443 49.2 490.743 56.1Z" fill="#22272E"/>
<path d="M445.942 86.5C445.942 86.5 444.842 96.2 444.142 99.9C443.442 103.6 441.842 113.3 454.242 113.9C465.342 114.5 471.342 105.9 473.542 101.7C474.242 100.4 474.542 99 474.442 97.6C474.142 93.2 473.542 82.4 473.842 73.6C474.242 62.4 445.942 78.6 445.942 86.5Z" fill="#F4C2C9"/>
<path d="M467.943 87.2C462.043 91.9 453.342 94.1 445.142 92.9C444.842 95.5 444.442 98.3 444.142 99.9C444.042 100.4 443.942 101 443.842 101.7C453.942 102.2 465.443 97.2 467.943 87.2Z" fill="#E26E85"/>
<path d="M434.142 50.5C434.142 50.5 431.442 54.4 431.842 57.4C432.242 60.4 437.942 70.5 440.842 70.2C443.742 69.9 446.742 57.5 443.342 53.4C439.842 49.3 435.242 48.6 434.142 50.5Z" fill="#22272E"/>
<path d="M436.443 56.2C436.443 56.2 436.743 63.2 435.443 71.2C434.143 79.2 433.242 91.2 445.142 94.5C457.042 97.8 471.043 93.3 475.443 76.9C479.843 60.5 483.042 43.9 467.842 39.1C452.642 34.3 434.643 40.5 436.443 56.2Z" fill="#F4C2C9"/>
<path d="M441.542 64.2C441.842 65.3 441.742 66.6 441.342 67.8C441.142 68.4 440.842 68.9 440.442 69.4C440.242 69.7 440.042 69.9 439.842 70.1C439.742 70.2 439.642 70.4 439.542 70.5C439.442 70.8 439.442 71.1 439.542 71.4C439.642 71.8 439.942 72.2 440.242 72.6C440.842 73.4 441.742 74.1 442.642 74.7C441.442 74.8 440.242 74.4 439.242 73.6C438.742 73.2 438.242 72.7 437.942 72C437.642 71.3 437.542 70.4 437.942 69.7C438.142 69.3 438.342 69 438.642 68.8C438.842 68.6 439.042 68.5 439.142 68.3C439.442 67.9 439.842 67.5 440.042 67.1C440.642 66.2 441.142 65.3 441.542 64.2Z" fill="#22272E"/>
<path d="M474.842 68.8C474.842 68.8 473.342 66.5 472.642 61.9C472.042 57.3 467.142 57.6 464.842 49.1C462.542 40.6 456.942 51.1 448.042 54.9C439.142 58.7 432.142 52.6 428.542 45.8C425.042 39.1 431.042 33 435.142 30.2C439.242 27.4 443.542 31.9 451.542 29.9C459.542 27.9 472.442 25.4 478.642 34.4C484.842 43.4 491.242 45.6 490.842 55.4C490.342 65.2 478.942 76.1 478.242 76.2C477.442 76.4 474.842 68.8 474.842 68.8Z" fill="#22272E"/>
<path d="M453.742 59.4C453.442 58.6 453.142 57.1 454.242 56.3C455.342 55.5 457.842 55.8 460.242 57.3C462.342 58.6 462.942 60.7 461.542 60.5C460.142 60.3 459.042 59.7 457.342 59.6C455.542 59.5 454.042 60.1 453.742 59.4Z" fill="#22272E"/>
<path d="M441.742 58.3C441.942 57.6 442.142 56.3 441.442 55.4C440.842 54.6 439.242 54.7 437.742 55.8C436.442 56.8 436.042 58.7 436.942 58.6C437.842 58.5 438.442 58.1 439.542 58.2C440.642 58.3 441.542 58.9 441.742 58.3Z" fill="#22272E"/>
<path d="M434.842 76.3C434.842 76.3 434.743 77.5 436.443 77.8C438.143 78 438.342 75.5 441.242 75.1C443.042 74.9 449.343 75.4 451.943 77.8C454.543 80.2 458.142 83 463.342 81.4C468.542 79.8 471.642 72.5 472.642 61.9C473.542 52.2 477.142 61.6 477.142 63.9C477.142 65.5 475.642 63.2 473.842 69.7C473.042 72.6 473.842 80.8 470.742 86.8C468.342 91.4 461.642 96.1 453.142 96.7C444.642 97.3 437.642 93.8 435.542 88.2C433.442 82.8 434.242 76.7 434.842 76.3Z" fill="#22272E"/>
<path d="M438.942 65.8C439.742 65.9 440.442 65.3 440.542 64.5L440.642 63.7C440.742 62.9 440.142 62.2 439.342 62.1C438.542 62 437.842 62.6 437.742 63.4L437.642 64.2C437.542 65 438.142 65.7 438.942 65.8Z" fill="#22272E"/>
<path d="M454.842 66.8C455.642 66.9 456.342 66.3 456.442 65.5L456.542 64.7C456.642 63.9 456.042 63.2 455.242 63.1C454.442 63 453.742 63.6 453.642 64.4L453.542 65.2C453.442 66.1 454.042 66.8 454.842 66.8Z" fill="#22272E"/>
<path d="M473.742 69.7C473.742 69.7 476.442 63.7 481.142 64.4C485.942 65.2 483.542 77.8 474.842 77.7" fill="#F4C2C9"/>
<path d="M480.842 68.9C480.542 68.6 480.242 68.3 480.042 68.2C479.742 68.1 479.842 68.3 479.642 68.4C479.642 68.5 479.442 69.3 479.342 70C479.242 70.7 479.042 71.5 478.642 72.2C478.442 72.6 478.242 73 477.842 73.3C477.442 73.6 476.942 73.7 476.542 73.5C476.942 73.3 477.042 73 477.142 72.7C477.242 72.4 477.242 72.1 477.342 71.8C477.442 71.1 477.442 70.4 477.642 69.6C477.742 69.2 477.843 68.8 477.943 68.4C478.043 68.2 478.142 68 478.242 67.8C478.342 67.7 478.342 67.6 478.542 67.5C478.642 67.4 478.843 67.3 478.943 67.2C479.143 67.1 479.442 67 479.842 67C480.242 67.1 480.442 67.3 480.642 67.5C480.942 68 480.942 68.5 480.842 68.9Z" fill="#22272E"/>
<path d="M445.943 81.9C445.943 81.9 448.642 83.1 451.342 82.6" stroke="#F4C2C9" stroke-width="1.8" stroke-miterlimit="10" stroke-linecap="round" stroke-linejoin="round"/>
<path d="M441.115 62.9246C441.593 57.9215 439.306 53.6103 436.007 53.2954C432.708 52.9805 429.647 56.7811 429.169 61.7843C428.692 66.7874 430.979 71.0986 434.278 71.4135C437.576 71.7284 440.638 67.9278 441.115 62.9246Z" stroke="#22272E" stroke-width="1.8" stroke-miterlimit="10" stroke-linecap="round" stroke-linejoin="round"/>
<path d="M463.353 64.8723C463.831 59.8691 460.786 55.4856 456.553 55.0815C452.319 54.6773 448.5 58.4056 448.022 63.4088C447.545 68.412 450.589 72.7954 454.823 73.1996C459.056 73.6037 462.875 69.8755 463.353 64.8723Z" stroke="#22272E" stroke-width="1.8" stroke-miterlimit="10" stroke-linecap="round" stroke-linejoin="round"/>
<path d="M440.842 64.4C440.842 64.4 442.543 61.2 447.943 65" stroke="#22272E" stroke-width="1.8" stroke-miterlimit="10" stroke-linecap="round" stroke-linejoin="round"/>
<path d="M463.242 64.9L474.542 67.3" stroke="#22272E" stroke-width="1.8" stroke-miterlimit="10" stroke-linecap="round" stroke-linejoin="round"/>
<path d="M506.542 175.3L511.842 186C511.842 186 506.242 193.6 500.242 208C494.242 222.4 489.842 240.2 485.742 245.3C485.742 245.3 489.742 254.9 499.542 259.1C499.542 259.1 518.642 231.1 527.342 218.9C536.042 206.7 544.342 191.1 543.742 183.3C542.842 171.8 534.142 154.8 533.342 150.2C532.542 145.6 506.742 162 506.542 175.3Z" fill="#F4C2C9"/>
<path d="M533.242 150.2C532.542 145.7 506.742 162 506.542 175.3L507.342 176.8C516.442 169.9 526.642 165.2 537.542 161.9C535.442 156.7 533.542 152.2 533.242 150.2Z" fill="#E26E85"/>
<path d="M490.742 234.9C492.142 237.3 496.942 243.7 508.142 246.3C508.542 246.4 508.642 246.8 508.442 247.1L503.342 254C503.242 254.2 502.942 254.2 502.742 254.2C490.242 250.4 486.942 244.1 486.442 242.9C486.342 242.8 486.342 242.6 486.442 242.5L489.842 235C490.042 234.5 490.542 234.5 490.742 234.9Z" fill="#22272E"/>
<path d="M497.816 247.039C499.194 244.774 498.551 241.867 496.38 240.547C494.21 239.227 491.333 239.993 489.956 242.258C488.578 244.523 489.221 247.429 491.392 248.75C493.563 250.07 496.439 249.304 497.816 247.039Z" fill="white"/>
<path d="M509.443 108.9C511.843 108.5 514.242 109.4 515.742 111.3C518.042 114.2 521.842 119.8 526.542 129.4C534.442 145.5 539.943 156.1 539.943 156.1C539.943 156.1 512.542 170.9 506.542 175.3C506.542 175.3 495.442 156.6 491.842 148.8C488.342 141.4 489.343 112.6 509.443 108.9Z" fill="#673AB7"/>
<path d="M503.142 169.5C503.142 169.5 518.142 158.3 536.842 150.1" stroke="#22272E" stroke-width="1.8" stroke-miterlimit="10" stroke-linecap="round" stroke-linejoin="round"/>
<path d="M481.842 238.7C481.842 238.7 486.542 256.2 505.842 262.3" stroke="#395460" stroke-width="1.8" stroke-miterlimit="10" stroke-linecap="round" stroke-linejoin="round"/>
<path d="M511.842 186C511.842 186 514.442 182.6 520.042 181.3" stroke="#E26E85" stroke-width="1.8" stroke-miterlimit="10" stroke-linecap="round" stroke-linejoin="round"/>
<path d="M660.043 211L571.543 200.1C568.643 199.7 566.643 197.2 566.943 194.3L576.343 106.5C576.743 103.1 579.343 100.4 582.743 99.9L674.343 87.5C677.743 87 680.743 89.9 680.343 93.4L666.743 205.9C666.343 209.1 663.343 211.4 660.043 211Z" fill="#395460"/>
<path d="M657.043 210.7L568.543 199.7C565.643 199.3 563.643 196.8 563.943 193.9L573.343 106.1C573.743 102.7 576.343 100 579.743 99.5L671.343 87.1C674.743 86.6 677.743 89.5 677.343 93L663.743 205.5C663.343 208.7 660.343 211.1 657.043 210.7Z" fill="#22272E"/>
<path d="M653.743 129.1L584.443 132.6C583.243 132.7 582.243 131.6 582.443 130.5L584.142 115C584.242 114.1 584.943 113.4 585.843 113.3L655.743 106.4C656.943 106.3 658.043 107.3 657.843 108.6L655.543 127.6C655.543 128.3 654.743 129 653.743 129.1Z" fill="#673AB7"/>
<path d="M602.143 118.7L648.043 115" stroke="#22272E" stroke-width="1.8" stroke-miterlimit="10" stroke-linecap="round" stroke-linejoin="round"/>
<path d="M601.543 124.6L626.243 122.9" stroke="#22272E" stroke-width="1.8" stroke-miterlimit="10" stroke-linecap="round" stroke-linejoin="round"/>
<path d="M594.18 123.575C595.072 121.923 594.691 119.988 593.33 119.254C591.969 118.52 590.143 119.264 589.252 120.917C588.36 122.569 588.741 124.504 590.102 125.238C591.463 125.972 593.289 125.228 594.18 123.575Z" fill="#22272E"/>
<path d="M649.843 160.8L581.343 159.6C580.243 159.6 579.343 158.6 579.443 157.5L581.142 142.1C581.242 141.1 582.043 140.4 583.043 140.4L652.043 138.2C653.243 138.2 654.143 139.2 654.043 140.4L651.843 159.2C651.743 160 650.843 160.8 649.843 160.8Z" fill="#F4C2C9"/>
<path d="M599.043 146.9L644.443 146.3" stroke="#22272E" stroke-width="1.8" stroke-miterlimit="10" stroke-linecap="round" stroke-linejoin="round"/>
<path d="M598.343 152.7H622.843" stroke="#22272E" stroke-width="1.8" stroke-miterlimit="10" stroke-linecap="round" stroke-linejoin="round"/>
<path d="M591.194 151.175C592.011 149.484 591.585 147.587 590.242 146.939C588.899 146.29 587.149 147.135 586.332 148.826C585.515 150.516 585.941 152.413 587.284 153.061C588.627 153.71 590.377 152.865 591.194 151.175Z" fill="#22272E"/>
<path d="M646.043 192.2L578.343 186.4C577.243 186.3 576.443 185.3 576.543 184.3L578.243 169C578.343 168 579.243 167.2 580.243 167.3L648.443 169.8C649.543 169.8 650.443 170.8 650.343 172L648.143 190.6C648.043 191.5 647.043 192.2 646.043 192.2Z" fill="#FFE779"/>
<path d="M595.943 174.9L640.743 177.3" stroke="#22272E" stroke-width="1.8" stroke-miterlimit="10" stroke-linecap="round" stroke-linejoin="round"/>
<path d="M595.243 180.6L619.443 182.3" stroke="#22272E" stroke-width="1.8" stroke-miterlimit="10" stroke-linecap="round" stroke-linejoin="round"/>
<path d="M588.357 177.945C589.097 176.219 588.585 174.344 587.214 173.756C585.844 173.169 584.133 174.092 583.394 175.818C582.654 177.544 583.166 179.42 584.537 180.007C585.907 180.594 587.618 179.671 588.357 177.945Z" fill="#22272E"/>
</g>
</svg>
